<?xml version="1.0" encoding="utf-8"?>
<!-- Generator: Adobe Illustrator 24.2.0, SVG Export Plug-In . SVG Version: 6.00 Build 0)  -->
<svg version="1.1" id="Layer_1" xmlns="http://www.w3.org/2000/svg" xmlns:xlink="http://www.w3.org/1999/xlink" x="0px" y="0px"
	 viewBox="0 0 300 300" style="enable-background:new 0 0 300 300;" xml:space="preserve">
<style type="text/css">
	.st0{fill:none;stroke:#1D1D1B;stroke-width:2;stroke-miterlimit:10;}
	.st1{fill:#1D1D1B;}
	.st2{font-family:'Gilroy-SemiBold';}
	.st3{font-size:27.0618px;}
	.st4{fill:#F2AD64;}
	.st5{font-family:'Gilroy-Light';}
	.st6{fill:#F1AD66;}
	.st7{fill:none;stroke:#1D1D1B;stroke-miterlimit:10;}
	.st8{fill:#9A4444;}
	.st9{fill:none;stroke:#FFFFFF;stroke-width:2;stroke-miterlimit:10;}
	.st10{fill:#292C2D;}
	.st11{fill:none;stroke:#FFFFFF;stroke-miterlimit:10;}
</style>
<g>
	<path class="st0" d="M249,168.86H51c-4.95,0-8.97-4.01-8.97-8.97V140.1c0-4.95,4.01-8.97,8.97-8.97h198c4.95,0,8.97,4.01,8.97,8.97
		v19.79C257.97,164.85,253.95,168.86,249,168.86z"/>
	<text transform="matrix(1 0 0 1 52.2808 159.8918)"><tspan x="0" y="0" class="st1 st2 st3">MAGGMA</tspan><tspan x="121.83" y="0" class="st4 st5 st3">LIGHT</tspan></text>
</g>
<rect x="320" class="st6" width="300" height="300"/>
<g>
	<path class="st7" d="M572.09,169.22H367.91c-4.36,0-7.89-3.53-7.89-7.89v-22.65c0-4.36,3.53-7.89,7.89-7.89h204.19
		c4.36,0,7.89,3.53,7.89,7.89v22.65C579.98,165.68,576.45,169.22,572.09,169.22z"/>
	<text transform="matrix(1 0 0 1 370.4565 160.0764)"><tspan x="0" y="0" class="st1 st2" style="font-size:27.5669px;">MAGGMA</tspan><tspan x="124.11" y="0" class="st5" style="fill:#FFFFFF; font-size:27.5669px;">LIGHT</tspan></text>
</g>
<rect y="320" class="st8" width="300" height="300"/>
<g>
	<path class="st9" d="M252.52,489.48H47.48c-4.95,0-8.97-4.01-8.97-8.97v-21.02c0-4.95,4.01-8.97,8.97-8.97h205.04
		c4.95,0,8.97,4.01,8.97,8.97v21.02C261.49,485.46,257.48,489.48,252.52,489.48z"/>
	<text transform="matrix(1 0 0 1 48.5378 479.9834)"><tspan x="0" y="0" class="st1 st2" style="font-size:27.9445px;">MAGGMA</tspan><tspan x="125.81" y="0" class="st5" style="fill:#FFFFFF; font-size:27.9445px;">LIGHT</tspan></text>
</g>
<rect x="320" y="320" class="st10" width="300" height="300"/>
<g>
	<path class="st11" d="M569.59,488.8H370.41c-4.41,0-7.99-3.58-7.99-7.99v-21.62c0-4.41,3.58-7.99,7.99-7.99h199.19
		c4.41,0,7.99,3.58,7.99,7.99v21.62C577.58,485.22,574,488.8,569.59,488.8z"/>
	<text transform="matrix(1 0 0 1 372.0923 479.0967)"><tspan x="0" y="0" class="st2" style="fill:#FFFFFF; font-size:26.9648px;">MAGGMA</tspan><tspan x="121.4" y="0" class="st4 st5" style="font-size:26.9648px;">LIGHT</tspan></text>
</g>
</svg>
